<svg width="104" height="104" viewBox="0 0 104 104" fill="none" xmlns="http://www.w3.org/2000/svg">
<g id="material-symbols:check-circle">
<path id="Vector" d="M45.9307 71.9337L76.4807 41.3837L70.4141 35.317L45.9307 59.8003L33.5807 47.4503L27.5141 53.517L45.9307 71.9337ZM51.9974 95.3337C46.003 95.3337 40.3696 94.1954 35.0974 91.919C29.8252 89.6426 25.2391 86.5558 21.3391 82.6587C17.4391 78.7587 14.3523 74.1726 12.0787 68.9003C9.80517 63.6281 8.66695 57.9948 8.66406 52.0003C8.66406 46.0059 9.80229 40.3726 12.0787 35.1003C14.3552 29.8281 17.442 25.242 21.3391 21.342C25.2391 17.442 29.8252 14.3552 35.0974 12.0817C40.3696 9.8081 46.003 8.66988 51.9974 8.66699C57.9918 8.66699 63.6252 9.80522 68.8974 12.0817C74.1696 14.3581 78.7557 17.4449 82.6557 21.342C86.5557 25.242 89.644 29.8281 91.9204 35.1003C94.1969 40.3726 95.3336 46.0059 95.3307 52.0003C95.3307 57.9948 94.1925 63.6281 91.9161 68.9003C89.6396 74.1726 86.5529 78.7587 82.6557 82.6587C78.7557 86.5587 74.1696 89.6469 68.8974 91.9233C63.6252 94.1998 57.9918 95.3366 51.9974 95.3337Z" fill="#2D2C79"/>
</g>
</svg>
