<svg width="24" height="24" viewBox="0 0 24 24" fill="none" xmlns="http://www.w3.org/2000/svg">
<g id="hidden_5340151 2" clip-path="url(#clip0_456_2424)">
<path id="Vector" d="M9.021 5.69535C8.9235 5.29185 9.1725 4.88685 9.5745 4.79085C14.3565 3.64035 19.149 5.90685 23.826 11.5199C24.057 11.7973 24.0585 12.2009 23.8275 12.4784C22.7025 13.8389 21.4995 15.0628 20.253 16.1129C20.112 16.2313 19.941 16.2899 19.77 16.2899C19.557 16.2899 19.3455 16.1984 19.197 16.0229C18.9285 15.7064 18.9705 15.2339 19.287 14.9654C20.3175 14.0969 21.318 13.1009 22.2675 11.9999C18.1215 7.21185 13.974 5.28135 9.9255 6.24885C9.5055 6.34485 9.117 6.09735 9.021 5.69535ZM11.7675 8.17935C11.712 8.59035 11.9985 8.96835 12.408 9.02385C13.7415 9.20385 14.796 10.2599 14.9775 11.5904C15.027 11.9669 15.3495 12.2399 15.7185 12.2399C15.7515 12.2399 15.786 12.2384 15.8205 12.2339C16.23 12.1784 16.518 11.8004 16.4625 11.3894C16.1925 9.38985 14.6085 7.80585 12.609 7.53585C12.204 7.48185 11.8215 7.76835 11.7675 8.17935ZM23.781 22.7189C24.0735 23.0114 24.0735 23.4869 23.781 23.7794C23.634 23.9263 23.442 23.9999 23.25 23.9999C23.058 23.9999 22.866 23.9263 22.719 23.7809L17.1135 18.1754C15.4095 19.0469 13.701 19.5058 11.9955 19.5058C8.0325 19.5058 4.077 17.1599 0.174002 12.4814C-0.0569982 12.2039 -0.0584982 11.7989 0.172502 11.5214C1.947 9.38685 3.75 7.75935 5.5455 6.60585L0.220502 1.28085C-0.0719982 0.988351 -0.0719982 0.512851 0.220502 0.220352C0.513002 -0.0721484 0.988502 -0.0721484 1.281 0.220352L23.781 22.7189ZM9 11.9999C9 13.6544 10.3455 14.9999 12 14.9999C12.5385 14.9999 13.0605 14.8439 13.5165 14.5769L9.4215 10.4819C9.153 10.9378 9 11.4539 9 11.9999ZM16.005 17.0654L14.601 15.6614C13.8465 16.1954 12.936 16.4999 12 16.4999C9.519 16.4999 7.5 14.4809 7.5 11.9999C7.5 11.0504 7.8 10.1534 8.337 9.39735L6.6285 7.68885C5.01 8.67735 3.3675 10.1069 1.7325 11.9999C6.579 17.5993 11.262 19.2644 16.005 17.0654Z" fill="black"/>
</g>
<defs>
<clipPath id="clip0_456_2424">
<rect width="24" height="24" fill="white"/>
</clipPath>
</defs>
</svg>
