<svg width="24" height="20" viewBox="0 0 24 20" fill="none" xmlns="http://www.w3.org/2000/svg">
<g id="Group 622">
<path id="Vector" d="M12 19.257C4.00457 19.257 0.246857 10.7678 0.0822856 10.4112C0.0279634 10.2808 0 10.1411 0 9.99982C0 9.85856 0.0279634 9.71881 0.0822856 9.58839C0.246857 9.23182 4.00457 0.742676 12 0.742676C19.9954 0.742676 23.7531 9.23182 23.9177 9.58839C23.972 9.71881 24 9.85856 24 9.99982C24 10.1411 23.972 10.2808 23.9177 10.4112C23.7531 10.7678 19.9954 19.257 12 19.257ZM2.16686 9.99982C2.976 11.577 6.28114 17.1998 12 17.1998C17.7189 17.1998 21.024 11.577 21.8331 9.99982C21.024 8.42268 17.7189 2.79982 12 2.79982C6.28114 2.79982 2.976 8.42268 2.16686 9.99982Z" fill="#3C3C48"/>
<path id="Vector_2" d="M11.8634 14.2854C10.9818 14.2854 10.1202 14.024 9.38714 13.5342C8.65417 13.0445 8.08288 12.3484 7.74552 11.5339C7.40818 10.7195 7.31992 9.8233 7.49189 8.95875C7.66387 8.09406 8.08837 7.29987 8.71171 6.67655C9.33502 6.05321 10.1292 5.62871 10.9939 5.45674C11.8585 5.28476 12.7547 5.37302 13.569 5.71037C14.3835 6.04773 15.0797 6.61901 15.5694 7.35198C16.0591 8.08501 16.3205 8.94668 16.3205 9.82823C16.317 11.0092 15.8462 12.1409 15.0111 12.9759C14.176 13.811 13.0443 14.2818 11.8634 14.2854ZM11.8634 7.42823C11.3887 7.42823 10.9246 7.56894 10.5301 7.83267C10.1354 8.09639 9.82778 8.47121 9.64606 8.90979C9.46449 9.34837 9.4169 9.83084 9.50947 10.2964C9.60218 10.762 9.83066 11.1897 10.1664 11.5252C10.502 11.861 10.9296 12.0896 11.3952 12.1822C11.8608 12.2747 12.3433 12.2271 12.7818 12.0456C13.2204 11.8638 13.5952 11.5562 13.859 11.1615C14.1227 10.767 14.2634 10.3029 14.2634 9.82823C14.2598 9.19285 14.0058 8.58449 13.5564 8.13521C13.1071 7.68579 12.4988 7.4318 11.8634 7.42823Z" fill="#3C3C48"/>
</g>
</svg>
