<svg width="30" height="30" viewBox="0 0 30 30" fill="none" xmlns="http://www.w3.org/2000/svg">
<g id="phone012">
<path id="Vector" d="M6.00085 9.74343C6.00085 10.5388 6.29254 11.413 6.6631 12.3407C7.03365 13.2684 7.51105 14.1426 7.88245 14.8048C8.88981 16.5542 10.188 18.2763 11.6719 19.7068C13.1558 21.1373 14.9052 22.3304 16.8656 23.0461C18.0053 23.4963 19.1449 24 20.4168 24C21.0528 24 21.9542 23.7617 22.775 23.4166C23.5704 23.0723 24.2852 22.5424 24.5506 21.9064C24.6566 21.6681 24.7889 21.3502 24.8686 20.9788C24.9483 20.6345 25.0008 20.2894 25.0008 20.0511C25.0008 19.9188 25.0008 19.7857 24.9746 19.7594C24.8949 19.6 24.7092 19.4677 24.4972 19.3354C24.0198 19.0972 23.9409 19.0174 23.2252 18.5935C22.4833 18.1695 21.715 17.6921 21.0519 17.3478C20.734 17.1621 20.522 17.0824 20.4423 17.0824C20.0183 17.0824 19.4883 17.6658 19.0381 18.3018C18.5607 18.9377 18.0307 19.5211 17.6602 19.5211C17.4745 19.5211 17.2887 19.4414 17.0768 19.3091C16.8648 19.1769 16.6528 19.0709 16.5205 18.9912C14.1886 17.6658 12.625 16.103 11.3005 13.7975C11.1411 13.5321 10.7706 12.9758 10.7706 12.6841C10.7706 12.3398 11.248 11.9422 11.7245 11.5182C12.1748 11.1205 12.6522 10.6439 12.6522 10.0606C12.6522 9.98085 12.5987 9.74258 12.4927 9.39831C12.2545 8.70893 11.9365 7.9144 11.6711 7.14616C11.5388 6.77476 11.4328 6.5102 11.4057 6.37792C11.3523 6.29821 11.326 6.19222 11.2997 6.05994C11.2734 5.92766 11.22 5.82166 11.1937 5.71567C11.114 5.4774 10.9817 5.29169 10.8494 5.1857C10.7171 5.13228 10.3992 5.05342 10.0812 5.02629C9.7632 5.02629 9.3918 5 9.23323 5C9.15352 5 9.04753 5 8.94154 5.02629H8.59727C7.74932 5.39769 7.13964 6.13964 6.68938 7.01388C6.26541 7.88812 6 8.86919 6 9.74343H6.00085Z" fill="#898990"/>
</g>
</svg>
