<svg width="19" height="19" viewBox="0 0 19 19" fill="none" xmlns="http://www.w3.org/2000/svg">
<g id="Group 1000005984">
<path id="Vector" fill-rule="evenodd" clip-rule="evenodd" d="M3.79688 5.69999C3.79688 2.55197 6.35118 0 9.50208 0C12.653 0 15.2073 2.55197 15.2073 5.69999C15.2073 8.848 12.653 11.4 9.50208 11.4C6.35118 11.4 3.79688 8.848 3.79688 5.69999Z" fill="#898990"/>
<path id="Vector_2" fill-rule="evenodd" clip-rule="evenodd" d="M3.25447 14.1572C4.79956 13.51 6.8605 13.2998 9.50077 13.2998C12.1356 13.2998 14.1934 13.5092 15.7371 14.153C17.3941 14.844 18.4112 16.018 18.9533 17.7256C19.1547 18.3602 18.6784 18.9998 18.0198 18.9998H0.975861C0.319982 18.9998 -0.153579 18.363 0.046208 17.7319C0.586747 16.0245 1.6002 14.85 3.25447 14.1572Z" fill="#898990"/>
</g>
</svg>
