<svg width="16" height="16" viewBox="0 0 16 16" fill="none" xmlns="http://www.w3.org/2000/svg">
<g id="ph:eye-bold">
<path id="Vector" d="M15.6873 7.68732C15.6641 7.6367 15.1166 6.42107 13.9073 5.2117C12.2891 3.59607 10.2498 2.7417 7.99976 2.7417C5.74976 2.7417 3.71038 3.59607 2.09413 5.2117C0.884757 6.42107 0.337257 7.6367 0.312257 7.68732C0.269915 7.78332 0.248047 7.88709 0.248047 7.99201C0.248047 8.09693 0.269915 8.2007 0.312257 8.2967C0.335382 8.34795 0.882882 9.56295 2.09288 10.7723C3.71038 12.3879 5.74976 13.2417 7.99976 13.2417C10.2498 13.2417 12.2891 12.3879 13.9048 10.7723C15.1148 9.56295 15.6623 8.34795 15.6854 8.2967C15.728 8.20083 15.7502 8.09713 15.7505 7.99221C15.7509 7.88729 15.7293 7.78345 15.6873 7.68732ZM12.8085 9.74982C11.4666 11.0711 9.84913 11.7417 7.99976 11.7417C6.15038 11.7417 4.53288 11.0711 3.19288 9.7492C2.6656 9.22747 2.21203 8.63617 1.84476 7.9917C2.21214 7.34749 2.6657 6.75641 3.19288 6.23482C4.53351 4.91232 6.15038 4.2417 7.99976 4.2417C9.84913 4.2417 11.466 4.91232 12.8066 6.23482C13.3339 6.75636 13.7874 7.34745 14.1548 7.9917C13.7874 8.63613 13.3339 9.22742 12.8066 9.7492L12.8085 9.74982ZM7.99976 5.2417C7.45586 5.2417 6.92417 5.40298 6.47194 5.70516C6.0197 6.00733 5.66723 6.43682 5.45909 6.93932C5.25095 7.44182 5.19649 7.99475 5.3026 8.5282C5.40871 9.06165 5.67062 9.55165 6.05521 9.93624C6.43981 10.3208 6.92981 10.5827 7.46326 10.6889C7.99671 10.795 8.54964 10.7405 9.05214 10.5324C9.55463 10.3242 9.98412 9.97175 10.2863 9.51952C10.5885 9.06728 10.7498 8.5356 10.7498 7.9917C10.7489 7.26261 10.4589 6.56361 9.94339 6.04807C9.42784 5.53252 8.72885 5.24253 7.99976 5.2417ZM7.99976 9.2417C7.75253 9.2417 7.51086 9.16839 7.30529 9.03104C7.09973 8.89368 6.93952 8.69846 6.84491 8.47005C6.7503 8.24165 6.72554 7.99031 6.77378 7.74784C6.82201 7.50536 6.94106 7.28263 7.11587 7.10782C7.29069 6.933 7.51342 6.81395 7.75589 6.76572C7.99837 6.71749 8.2497 6.74224 8.47811 6.83685C8.70652 6.93146 8.90174 7.09167 9.03909 7.29724C9.17645 7.5028 9.24976 7.74447 9.24976 7.9917C9.24976 8.32322 9.11806 8.64116 8.88364 8.87558C8.64922 9.11 8.33128 9.2417 7.99976 9.2417Z" fill="#2D2C79"/>
</g>
</svg>
