<svg width="30" height="30" viewBox="0 0 30 30" fill="none" xmlns="http://www.w3.org/2000/svg">
<g id="cross_9684650 1" clip-path="url(#clip0_420_3918)">
<g id="Layer_2_00000019666308414107203810000016359489542308255153_">
<g id="croos">
<path id="Vector" d="M10.9219 15L0.84375 4.92188C-0.287109 3.79688 -0.287109 1.97461 0.832031 0.843756C1.95703 -0.287104 3.7793 -0.287104 4.91016 0.832037L4.91602 0.837896L14.9941 10.916L25.0781 0.843756C26.2031 -0.281244 28.0312 -0.281244 29.1562 0.843756C30.2812 1.96876 30.2812 3.79688 29.1562 4.92188L19.0781 15L29.1562 25.0781C30.2812 26.2031 30.2812 28.0313 29.1562 29.1563C28.0312 30.2813 26.2031 30.2813 25.0781 29.1563L15 19.0781L4.92188 29.1563C3.79688 30.2813 1.96875 30.2813 0.84375 29.1563C-0.28125 28.0313 -0.28125 26.2031 0.84375 25.0781L10.9219 15Z" fill="#2D2C79"/>
</g>
</g>
</g>
<defs>
<clipPath id="clip0_420_3918">
<rect width="30" height="30" fill="white" transform="matrix(-1 0 0 1 30 0)"/>
</clipPath>
</defs>
</svg>
