<svg xmlns="http://www.w3.org/2000/svg" width="13" height="13" viewBox="0 0 13 13" fill="none">
  <path d="M5.95249 12.6782L5.95242 12.6782L5.95249 12.6782Z" fill="#52526C" stroke="#52526C" stroke-width="2"/>
  <mask id="path-2-inside-1_3978_15651" fill="white">
    <path d="M6.4994 2.25977C5.09743 2.25977 3.95703 3.40044 3.95703 4.80214C3.95703 6.20383 5.09743 7.34451 6.4994 7.34451C7.90138 7.34451 9.04178 6.20383 9.04178 4.80214C9.04178 3.40044 7.90138 2.25977 6.4994 2.25977ZM6.4994 6.77954C5.40929 6.77954 4.522 5.89253 4.522 4.80214C4.522 3.71174 5.40929 2.82474 6.4994 2.82474C7.58952 2.82474 8.47681 3.71174 8.47681 4.80214C8.47681 5.89253 7.58952 6.77954 6.4994 6.77954Z"/>
  </mask>
  <path d="M6.4994 2.25977C5.09743 2.25977 3.95703 3.40044 3.95703 4.80214C3.95703 6.20383 5.09743 7.34451 6.4994 7.34451C7.90138 7.34451 9.04178 6.20383 9.04178 4.80214C9.04178 3.40044 7.90138 2.25977 6.4994 2.25977ZM6.4994 6.77954C5.40929 6.77954 4.522 5.89253 4.522 4.80214C4.522 3.71174 5.40929 2.82474 6.4994 2.82474C7.58952 2.82474 8.47681 3.71174 8.47681 4.80214C8.47681 5.89253 7.58952 6.77954 6.4994 6.77954Z" fill="#52526C"/>
  <path d="M9.04178 4.80214H11.0418H9.04178ZM6.4994 0.259766C3.99271 0.259766 1.95703 2.29602 1.95703 4.80214H5.95703C5.95703 4.50487 6.20214 4.25977 6.4994 4.25977V0.259766ZM1.95703 4.80214C1.95703 7.30826 3.99271 9.34451 6.4994 9.34451V5.34451C6.20214 5.34451 5.95703 5.09941 5.95703 4.80214H1.95703ZM6.4994 9.34451C9.0061 9.34451 11.0418 7.30826 11.0418 4.80214H7.04178C7.04178 5.09941 6.79667 5.34451 6.4994 5.34451V9.34451ZM11.0418 4.80214C11.0418 2.29602 9.0061 0.259766 6.4994 0.259766V4.25977C6.79667 4.25977 7.04178 4.50487 7.04178 4.80214H11.0418ZM6.4994 4.77954C6.49909 4.77954 6.50066 4.77954 6.50344 4.78011C6.5061 4.78066 6.50863 4.78147 6.51078 4.78238C6.51284 4.78325 6.51418 4.78406 6.51491 4.78455C6.5156 4.78502 6.51592 4.78532 6.51606 4.78545C6.51619 4.78559 6.5165 4.78591 6.51697 4.78661C6.51747 4.78735 6.51828 4.7887 6.51916 4.79077C6.52007 4.79293 6.52089 4.79548 6.52143 4.79814C6.522 4.80092 6.522 4.80248 6.522 4.80214H2.522C2.522 6.99729 4.30491 8.77954 6.4994 8.77954V4.77954ZM6.522 4.80214C6.522 4.8018 6.522 4.80336 6.52143 4.80614C6.52089 4.8088 6.52007 4.81134 6.51916 4.8135C6.51828 4.81558 6.51747 4.81693 6.51697 4.81767C6.5165 4.81837 6.51619 4.81869 6.51605 4.81882C6.51592 4.81896 6.5156 4.81926 6.51491 4.81973C6.51418 4.82022 6.51284 4.82103 6.51078 4.8219C6.50863 4.82281 6.5061 4.82362 6.50344 4.82417C6.50066 4.82474 6.49909 4.82474 6.4994 4.82474V0.824737C4.30491 0.824737 2.522 2.60699 2.522 4.80214H6.522ZM6.4994 4.82474C6.49972 4.82474 6.49815 4.82474 6.49537 4.82417C6.49271 4.82362 6.49017 4.82281 6.48803 4.8219C6.48597 4.82103 6.48462 4.82022 6.4839 4.81973C6.48321 4.81926 6.48289 4.81896 6.48275 4.81882C6.48262 4.81869 6.48231 4.81837 6.48184 4.81767C6.48134 4.81693 6.48053 4.81558 6.47965 4.8135C6.47873 4.81134 6.47792 4.8088 6.47737 4.80614C6.4768 4.80336 6.47681 4.8018 6.47681 4.80214H10.4768C10.4768 2.60699 8.6939 0.824737 6.4994 0.824737V4.82474ZM6.47681 4.80214C6.47681 4.80248 6.4768 4.80092 6.47737 4.79814C6.47792 4.79548 6.47873 4.79293 6.47965 4.79077C6.48053 4.7887 6.48134 4.78735 6.48184 4.78661C6.48231 4.78591 6.48262 4.78559 6.48275 4.78545C6.48289 4.78532 6.48321 4.78502 6.4839 4.78455C6.48462 4.78406 6.48597 4.78325 6.48803 4.78238C6.49017 4.78147 6.49271 4.78066 6.49537 4.78011C6.49815 4.77954 6.49972 4.77954 6.4994 4.77954V8.77954C8.6939 8.77954 10.4768 6.99729 10.4768 4.80214H6.47681Z" fill="#52526C" mask="url(#path-2-inside-1_3978_15651)"/>
</svg>