<svg xmlns="http://www.w3.org/2000/svg" width="16" height="14" viewBox="0 0 16 14" fill="none">
<path d="M2.33203 1.91602H10.9987C11.5291 1.91602 12.0378 2.10039 12.4129 2.42858C12.788 2.75677 12.9987 3.20189 12.9987 3.66602V8.91602C12.9987 9.38014 12.788 9.82526 12.4129 10.1535C12.0378 10.4816 11.5291 10.666 10.9987 10.666H2.33203C1.8016 10.666 1.29289 10.4816 0.917818 10.1535C0.542745 9.82526 0.332031 9.38014 0.332031 8.91602V3.66602C0.332031 3.20189 0.542745 2.75677 0.917818 2.42858C1.29289 2.10039 1.8016 1.91602 2.33203 1.91602ZM2.33203 2.49935C1.9987 2.49935 1.70536 2.59852 1.4787 2.77352L6.66536 5.70768L11.852 2.77352C11.6254 2.59852 11.332 2.49935 10.9987 2.49935H2.33203ZM6.66536 6.41352L1.08536 3.24602C1.03203 3.37435 0.998698 3.52018 0.998698 3.66602V8.91602C0.998698 9.22543 1.13917 9.52218 1.38922 9.74097C1.63927 9.95977 1.97841 10.0827 2.33203 10.0827H10.9987C11.3523 10.0827 11.6915 9.95977 11.9415 9.74097C12.1916 9.52218 12.332 9.22543 12.332 8.91602V3.66602C12.332 3.52018 12.2987 3.37435 12.2454 3.24602L6.66536 6.41352Z" fill="#2D2C79"/>
</svg>