<svg xmlns="http://www.w3.org/2000/svg" width="63" height="56" viewBox="0 0 63 56" fill="none">
  <path d="M0 47.7734H2.46084C3.12622 47.7734 3.63834 47.8183 3.99597 47.9079C4.3536 47.9976 4.62243 48.1269 4.80246 48.2958C4.98249 48.4648 5.10413 48.6702 5.16861 48.91C5.23186 49.1509 5.2647 49.5232 5.2647 50.0268V50.7286C5.2647 51.2426 5.20267 51.617 5.07859 51.8526C4.95451 52.0883 4.72704 52.2687 4.39618 52.3949C4.06531 52.521 3.63226 52.5836 3.09946 52.5836H2.44381V55.8276H0V47.7734ZM2.44381 49.1519V51.202C2.51314 51.2051 2.57275 51.2072 2.62384 51.2072C2.84766 51.2072 3.00458 51.1603 3.09095 51.0654C3.17853 50.9705 3.22111 50.7744 3.22111 50.4762V49.8141C3.22111 49.5388 3.17123 49.3594 3.07027 49.2771C2.9693 49.1926 2.76129 49.1519 2.44381 49.1519Z" fill="#70C9C3"/>
  <path d="M9.89361 47.7734L11.2913 55.8286H8.79396L8.66258 54.3802H7.78797L7.64078 55.8286H5.11426L6.3611 47.7734H9.89361ZM8.59811 52.9527C8.47404 52.0403 8.34996 50.9131 8.22589 49.569C7.97652 51.1112 7.82081 52.2395 7.75634 52.9527H8.59811Z" fill="#70C9C3"/>
  <path d="M16.199 47.7734L14.4169 52.9131V55.8286H12.1531V52.9131L10.4355 47.7734H12.6799C13.0302 49.3459 13.2285 50.4032 13.2735 50.9475C13.4085 50.0883 13.636 49.0299 13.9547 47.7734H16.199Z" fill="#70C9C3"/>
  <path d="M24.1574 47.7734V55.8286H22.0213L22.0189 50.3907L21.1686 55.8286H19.6541L18.7576 50.5148L18.7552 55.8286H16.6191V47.7734H19.7806C19.8743 48.2573 19.9716 48.8287 20.0701 49.4856L20.4168 51.5346L20.9788 47.7734H24.1574Z" fill="#70C9C3"/>
  <path d="M25.1367 47.7734H29.2118V49.3855H27.5805V50.9131H29.1071V52.446H27.5805V54.2165H29.3735V55.8286H25.1367V47.7734Z" fill="#70C9C3"/>
  <path d="M35.5321 47.7734V55.8286H33.39L32.1188 52.1665V55.8286H30.0752V47.7734H32.1188L33.4885 51.4001V47.7734H35.5321Z" fill="#70C9C3"/>
  <path d="M41.4358 47.7734V49.3855H39.9846V55.8286H37.5408V49.3855H36.0957V47.7734H41.4358Z" fill="#70C9C3"/>
  <path d="M49.7046 47.7745V55.8297H47.2608V52.446H46.5297V55.8297H44.0859V47.7745H46.5297V50.6556H47.2608V47.7745H49.7046ZM56.2393 47.7745V53.1571C56.2393 53.7671 56.2162 54.1967 56.1699 54.4439C56.1237 54.691 55.9863 54.9444 55.7576 55.2051C55.5289 55.4657 55.2284 55.6628 54.855 55.7973C54.4815 55.9318 54.0412 55.9986 53.5352 55.9986C52.9744 55.9986 52.4793 55.9193 52.0499 55.7598C51.6205 55.6003 51.2994 55.3938 51.0865 55.1383C50.8736 54.8828 50.7483 54.6138 50.7094 54.3292C50.6705 54.0445 50.651 53.4491 50.651 52.5408V47.7745H53.0948V53.814C53.0948 54.1654 53.1167 54.3907 53.1617 54.4877C53.2067 54.5857 53.2967 54.6347 53.4318 54.6347C53.5862 54.6347 53.686 54.5805 53.731 54.4731C53.7748 54.3656 53.7979 54.1102 53.7979 53.7087V47.7734H56.2393V47.7745ZM57.1857 47.7745H59.6234C60.3934 47.7745 60.9773 47.8256 61.3738 47.9288C61.7704 48.032 62.0903 48.2395 62.3348 48.5524C62.5781 48.8662 62.701 49.3699 62.701 50.0664C62.701 50.5367 62.6146 50.8652 62.4431 51.0508C62.2703 51.2364 61.931 51.3792 61.4249 51.4783C61.9893 51.5878 62.3725 51.7692 62.5744 52.0237C62.7752 52.277 62.8761 52.667 62.8761 53.1915V53.9381C62.8761 54.4824 62.8031 54.886 62.6584 55.1477C62.5136 55.4105 62.2825 55.5888 61.965 55.6858C61.6475 55.7817 60.998 55.8297 60.0151 55.8297H57.1881V47.7745H57.1857ZM59.6295 49.153V50.9434C59.7341 50.9402 59.8156 50.9382 59.8728 50.9382C60.1124 50.9382 60.2657 50.8881 60.3313 50.7859C60.397 50.6848 60.4299 50.3949 60.4299 49.9173C60.4299 49.665 60.4031 49.4887 60.3484 49.3876C60.2936 49.2865 60.2231 49.2228 60.1367 49.1957C60.0504 49.1707 59.8813 49.1561 59.6295 49.153ZM59.6295 52.1978V54.4512C59.9737 54.4407 60.1939 54.3948 60.2876 54.3114C60.3824 54.2291 60.4299 54.0247 60.4299 53.6993V52.9475C60.4299 52.6024 60.3873 52.3938 60.3022 52.3208C60.217 52.2489 59.9932 52.2072 59.6295 52.1978Z" fill="url(#paint0_linear_4715_18640)"/>
  <path d="M50.8762 10.6641L36.5041 3.48693V20.0488L41.3029 17.6578V10.6787L46.0786 13.0437V29.6253L41.3029 31.9903V22.3605L36.5041 24.7787V34.3677L31.7296 36.7326V1.21166L29.3211 0L7.79148 10.6641H7.78418V31.9642L12.583 34.3552V13.0405L26.9308 5.93424V20.7005L17.366 25.4377L17.3709 25.4439H17.3575V36.6805L22.1563 39.0715V27.8162L26.9308 25.4512V41.4625L29.3636 42.6544L50.8774 31.9986L50.8762 10.6641ZM17.3575 16.0478V17.0321L18.597 16.4044V15.1458L17.636 15.6296C17.4633 15.7172 17.3575 15.8757 17.3575 16.0478ZM20.918 13.9759V15.2292L22.1563 14.6015V13.8486C22.1563 13.6297 21.8777 13.4931 21.6576 13.6036L20.918 13.9759ZM19.1383 14.8726V16.1302L20.3767 15.5035V14.2491L19.1383 14.8726ZM17.3575 19.322V20.0457C17.3575 20.2646 17.6336 20.4012 17.855 20.2907L18.597 19.9216V18.6932L17.3575 19.322ZM19.1383 18.419V19.6515L20.3767 19.0342V17.7913L19.1383 18.419ZM17.3575 17.5723V18.7819L20.3767 17.2522L20.918 16.9779V18.7652L21.8753 18.2876C22.0492 18.201 22.1563 18.0415 22.1563 17.8684V15.1396L17.3575 17.5723Z" fill="url(#paint1_linear_4715_18640)"/>
  <defs>
    <linearGradient id="paint0_linear_4715_18640" x1="42.6312" y1="47.4354" x2="60.3386" y2="58.0063" gradientUnits="userSpaceOnUse">
      <stop offset="0.135417" stop-color="#71CBC4"/>
      <stop offset="1" stop-color="#2D2C79"/>
    </linearGradient>
    <linearGradient id="paint1_linear_4715_18640" x1="7.57914" y1="7.48069" x2="45.797" y2="40.559" gradientUnits="userSpaceOnUse">
      <stop offset="0.130208" stop-color="#75D5C9"/>
      <stop offset="0.895833" stop-color="#2D2C79"/>
    </linearGradient>
  </defs>
</svg>