<svg xmlns="http://www.w3.org/2000/svg" width="14" height="12" viewBox="0 0 14 12" fill="none">
<path d="M13.4737 8.38308L10.0306 7.06244C9.89708 7.01292 9.75131 6.99271 9.60643 7.00362C9.46154 7.01453 9.32212 7.05623 9.20076 7.12494C9.19106 7.13021 9.1818 7.13606 9.17305 7.14244L7.36469 8.4637C7.32445 8.48474 7.27877 8.49695 7.23171 8.49924C7.18465 8.50153 7.13766 8.49383 7.0949 8.47683C5.91072 7.98682 4.68497 6.94431 4.11329 5.94117C4.09307 5.9048 4.08368 5.86469 4.08598 5.82444C4.08827 5.7842 4.10216 5.74506 4.12642 5.71055L5.67227 4.1349C5.67957 4.1274 5.68613 4.11928 5.69269 4.11115C5.7726 4.00728 5.82111 3.888 5.83384 3.76405C5.84657 3.6401 5.82312 3.51539 5.76561 3.40115L4.22194 0.454863C4.14742 0.30564 4.01843 0.181168 3.85434 0.100138C3.69025 0.0191074 3.49992 -0.0141067 3.31193 0.00548293C2.39431 0.109184 1.55211 0.495653 0.942636 1.09271C0.33316 1.68976 -0.00191041 2.45656 8.19391e-06 3.24989C8.19391e-06 8.07495 4.57924 12 10.2085 12C11.134 12.0016 12.0286 11.7144 12.7252 11.192C13.4218 10.6696 13.8727 9.94774 13.9936 9.16121C14.0163 9.00081 13.978 8.83842 13.8843 8.69821C13.7906 8.55801 13.6466 8.44748 13.4737 8.38308ZM13.4169 9.09871C13.3139 9.76481 12.9314 10.376 12.3409 10.8179C11.7504 11.2598 10.9924 11.5023 10.2085 11.5C4.90153 11.5 0.58335 7.7987 0.58335 3.24989C0.580634 2.57798 0.86352 1.92822 1.37912 1.42209C1.89472 0.915962 2.60773 0.588122 3.38485 0.499864C3.3965 0.499243 3.40819 0.499243 3.41985 0.499864C3.47739 0.500284 3.5335 0.515284 3.58112 0.542976C3.62874 0.570669 3.66573 0.609816 3.68745 0.65549L5.22675 3.60177C5.24471 3.63778 5.25255 3.67691 5.24963 3.71599C5.24672 3.75507 5.23314 3.79302 5.20998 3.82678L3.66485 5.40179C3.65756 5.40992 3.65027 5.41742 3.6437 5.42617C3.56139 5.53407 3.51291 5.65833 3.50294 5.78697C3.49298 5.91561 3.52187 6.04427 3.58683 6.16055C4.22048 7.27244 5.52717 8.38433 6.83896 8.92746C6.97554 8.98277 7.12651 9.00684 7.27716 8.99731C7.42781 8.98778 7.57302 8.94498 7.69866 8.87308L7.72564 8.85558L9.53618 7.53557C9.57491 7.51529 9.61871 7.50318 9.66397 7.50025C9.70922 7.49731 9.75465 7.50364 9.7965 7.51869L13.2389 8.84121C13.297 8.86194 13.3458 8.89821 13.3778 8.94462C13.4099 8.99103 13.4236 9.04508 13.4169 9.09871Z" fill="#2D2C79"/>
</svg>